<svg width="87" height="297" viewBox="0 0 87 297" fill="none" xmlns="http://www.w3.org/2000/svg">
<path d="M38.444 72.4781C38.444 84.4357 32.5389 90.4298 20.7288 90.4603C8.91871 90.4908 3.02637 84.4967 3.0518 72.4781V20.2252C3.0518 8.26759 8.94414 2.28879 20.7288 2.28879C32.5135 2.28879 38.4186 8.26759 38.444 20.2252V41.1218H26.1227V20.2252C26.1227 16.3953 24.3426 14.4651 20.7822 14.4346H20.6907C17.1304 14.4346 15.3502 16.3648 15.3502 20.2252V72.4781C15.3502 76.3385 17.1304 78.2687 20.6907 78.2687C24.251 78.2687 26.0617 76.3385 26.1227 72.4781V58.5852H38.444V72.4781Z" fill="#1D3D7A"/>
<path d="M59.1727 71.6389L56.9526 89.0565H44.5398L57.2578 3.60864H74.149L86.8136 89.0565H74.3626L72.1425 71.6389H59.1727ZM70.6624 59.8898L65.6576 20.2176L60.6528 59.8898H70.6624Z" fill="#1D3D7A"/>
<path d="M30.8987 168.004L44.7 194.905H30.0976L18.2188 170.407H16.3878V194.905H3.05182V102.476H22.4607C34.3013 102.507 40.2216 108.992 40.2216 121.931V150.922C40.2216 159.106 37.114 164.8 30.8987 168.004ZM16.403 115.576V157.689H19.4548C20.7378 157.756 22.0237 157.63 23.2694 157.316C25.6853 156.339 26.8958 154.376 26.9009 151.426V121.885C26.9009 117.674 24.9682 115.571 21.1027 115.576H16.403Z" fill="#1D3D7A"/>
<path d="M52.2377 194.905V102.476H65.5661V181.767H86.8136V194.905H52.2377Z" fill="#1D3D7A"/>
<path d="M39.947 278.262C39.947 290.724 33.7902 296.969 21.4765 297C9.16288 297.03 3.02132 290.785 3.05183 278.262V223.812C3.05183 211.346 9.1934 205.113 21.4765 205.113C33.7596 205.113 39.9165 211.346 39.947 223.812V278.262ZM27.0993 223.812C27.0993 219.815 25.2454 217.808 21.5223 217.77H21.4307C17.7382 217.77 15.8919 219.784 15.8919 223.812V278.262C15.8919 282.28 17.7534 284.292 21.4765 284.297C25.1996 284.302 27.0739 282.291 27.0993 278.262V223.812Z" fill="#1D3D7A"/>
<path d="M49.9261 223.812C49.9261 211.346 56.0676 205.113 68.3507 205.113C80.6339 205.113 86.7882 211.346 86.8136 223.812V245.586H74.004V223.812C74.004 219.815 72.1425 217.808 68.427 217.77H68.3355C64.6429 217.77 62.7966 219.784 62.7966 223.812V238.872C62.7966 245.861 66.8046 251.776 74.8204 256.618C82.8413 262.335 86.8492 269.55 86.8441 278.262C86.8441 290.754 80.7051 297 68.427 297C56.149 297 49.982 290.754 49.9261 278.262V271.999H62.7661V278.262C62.7661 282.28 64.6429 284.292 68.3965 284.297C72.1501 284.302 74.0193 282.291 74.004 278.262C74.004 273.97 69.986 268.952 61.9498 263.21C53.9136 257.468 49.9057 249.447 49.9261 239.147V223.812Z" fill="#1D3D7A"/>
<path d="M35.3923 70.1893C35.3923 82.1469 29.4873 88.141 17.6771 88.1715C5.86703 88.202 -0.0253108 82.2079 0.000120112 70.1893V17.9364C0.000120112 5.97881 5.89246 0 17.6771 0C29.4618 0 35.3669 5.97881 35.3923 17.9364V38.833H23.071V17.9364C23.071 14.1065 21.2909 12.1763 17.7305 12.1458H17.639C14.0787 12.1458 12.2985 14.076 12.2985 17.9364V70.1893C12.2985 74.0497 14.0787 75.9799 17.639 75.9799C21.1993 75.9799 23.01 74.0497 23.071 70.1893V56.2964H35.3923V70.1893Z" fill="#284A9A"/>
<path d="M56.121 69.3501L53.9009 86.7677H41.4881L54.2061 1.31985H71.0973L83.7619 86.7677H71.3109L69.0908 69.3501H56.121ZM67.6107 57.601L62.6059 17.9288L57.6011 57.601H67.6107Z" fill="#284A9A"/>
<path d="M27.8469 165.715L41.6483 192.616H27.0459L15.1671 168.119H13.3361V192.616H0.000106812V100.188H19.409C31.2496 100.218 37.1699 106.703 37.1699 119.642V148.633C37.1699 156.817 34.0623 162.511 27.8469 165.715ZM13.3513 113.287V155.401H16.403C17.6861 155.467 18.972 155.341 20.2177 155.027C22.6387 154.05 23.8492 152.087 23.8492 149.137V119.596C23.8492 115.385 21.9165 113.282 18.051 113.287H13.3513Z" fill="#284A9A"/>
<path d="M49.186 192.616V100.188H62.5144V179.479H83.7619V192.616H49.186Z" fill="#284A9A"/>
<path d="M36.8953 275.974C36.8953 288.435 30.7384 294.681 18.4248 294.711C6.11116 294.742 -0.0304039 288.496 0.000113166 275.974V221.523C0.000113166 209.057 6.14168 202.824 18.4248 202.824C30.7079 202.824 36.8647 209.057 36.8953 221.523V275.974ZM24.0476 221.523C24.0476 217.526 22.1937 215.519 18.4706 215.481H18.379C14.6865 215.481 12.8402 217.495 12.8402 221.523V275.974C12.8402 279.992 14.7017 282.003 18.4248 282.008C22.1479 282.013 24.0221 280.002 24.0476 275.974V221.523Z" fill="#284A9A"/>
<path d="M46.8744 221.524C46.8744 209.057 53.0159 202.824 65.2991 202.824C77.5822 202.824 83.7365 209.057 83.7619 221.524V243.297H70.9524V221.524C70.9524 217.526 69.0908 215.519 65.3754 215.481H65.2838C61.5912 215.481 59.745 217.495 59.745 221.524V236.584C59.745 243.572 63.7529 249.487 71.7687 254.329C79.7896 260.046 83.7975 267.261 83.7924 275.974C83.7924 288.465 77.6534 294.711 65.3754 294.711C53.0973 294.711 46.9303 288.465 46.8744 275.974V269.71H59.7144V275.974C59.7144 279.992 61.5912 282.003 65.3448 282.008C69.0984 282.013 70.9676 280.002 70.9524 275.974C70.9524 271.681 66.9343 266.663 58.8981 260.921C50.8619 255.179 46.854 247.158 46.8744 236.858V221.524Z" fill="#284A9A"/>
</svg>
