<svg width="204" height="301" viewBox="0 0 204 301" fill="none" xmlns="http://www.w3.org/2000/svg">
<path d="M102.501 30.3431C123.976 30.0021 145.473 36.6061 161.905 50.0414C176.168 62.1642 184.012 82.1415 188.29 99.2561V112.774C186.151 124.142 184.012 135.593 183.299 147.003C205.405 145.577 211.823 165.544 192.6 177.667C184.756 182.669 176.447 177.842 174.803 180.209C164.386 195.195 158.433 200.352 150.961 204.651C134.58 214.077 113.321 214.769 113.321 214.769C112.184 217.136 113.321 232.917 113.321 232.917C117.413 233.833 121.444 234.999 125.392 236.41C122.292 241.009 123.48 245.908 104.588 249.07H100.95C90.0367 248.037 83.6808 242.466 79.6502 236.41C83.6155 235.006 87.6642 233.85 91.773 232.948C91.773 232.948 92.8581 217.167 91.773 214.8C91.773 214.8 72.8705 214.18 56.4897 204.754C49.0279 200.445 40.7084 195.226 30.2908 180.24C28.6476 177.873 20.3383 182.7 12.4942 177.698C-6.7597 165.575 -0.35208 145.66 21.7956 147.034C21.0824 135.666 18.9431 124.215 16.8038 112.805V99.2561C21.0101 82.1415 28.8336 62.1332 43.0957 50.0414C57.2752 38.4457 75.2269 31.945 93.6849 30.6015L102.501 30.3431Z" fill="#FAD3C8"/>
<path d="M75.7849 97.0548C78.3377 96.1246 82.699 94.4194 82.0685 92.7348C81.4381 91.0502 78.6374 92.0734 77.4902 92.2697C75.1028 92.6728 72.6535 92.8795 70.8242 94.6984C69.9147 95.6182 68.5299 97.3958 70.1008 98.1709C71.5063 98.8737 72.8808 98.1709 74.2347 97.6439C74.4621 97.5198 75.0408 97.3235 75.7849 97.0548Z" fill="#603017"/>
<path d="M80.6837 140.151C84.6729 139.355 84.0632 133.589 82.9987 130.85C82.4096 129.351 81.4071 127.543 79.7845 126.985C78.9038 126.753 77.9678 126.866 77.1683 127.303C76.3689 127.739 75.7667 128.464 75.4852 129.331C74.4724 132.731 75.4129 141.205 80.6837 140.151Z" fill="#010101"/>
<path d="M98.9764 162.01L99.5138 162.165C99.7233 162.237 99.9374 162.296 100.155 162.34H101.012C102.801 162.183 104.522 161.587 106.025 160.604C108.158 159.407 109.939 157.671 111.192 155.571C111.75 154.424 111.688 153.504 110.955 152.956C109.921 152.057 108.577 151.158 107.43 150.114C106.243 148.985 105.17 147.743 104.227 146.404C103.772 145.742 103.307 145.102 102.914 144.43L101.943 142.363C101.367 141.038 100.947 139.651 100.692 138.229C100.513 136.941 100.419 135.643 100.413 134.343C100.512 133.26 100.671 132.184 100.888 131.119C101.045 130.305 101.291 129.511 101.622 128.752C102.108 127.47 102.418 126.768 102.418 126.768C102.418 126.768 102.325 127.553 102.098 128.835C101.917 129.611 101.823 130.404 101.818 131.201C101.818 132.131 101.818 133.155 101.87 134.302C102.108 135.408 102.191 136.606 102.532 137.816C102.901 139.08 103.385 140.308 103.978 141.484C104.289 142.094 104.619 142.704 104.94 143.324C105.26 143.944 105.777 144.471 106.2 145.05C107.045 146.205 107.996 147.278 109.043 148.254C110.138 149.287 111.368 150.104 112.608 151.251C113.022 151.578 113.346 152.004 113.549 152.491C113.809 152.969 113.934 153.508 113.91 154.052C113.901 154.989 113.64 155.906 113.156 156.708C112.361 158.017 111.306 159.15 110.055 160.036C109.014 160.829 107.875 161.486 106.666 161.989C104.881 162.815 102.905 163.137 100.95 162.919C100.415 162.843 99.9028 162.649 99.4518 162.351L98.9764 162.01Z" fill="#F39980"/>
<path d="M127.036 97.0548C124.483 96.1246 120.122 94.4194 120.752 92.7348C121.382 91.0502 124.183 92.0734 125.32 92.2697C127.718 92.6728 130.167 92.8795 131.986 94.6984C132.906 95.6182 134.291 97.3958 132.72 98.1709C131.314 98.8737 129.929 98.1709 128.586 97.6439C128.338 97.5198 127.759 97.3235 127.036 97.0548Z" fill="#603017"/>
<path d="M122.116 140.151C118.117 139.355 118.737 133.589 119.812 130.85C120.39 129.351 121.393 127.543 123.015 126.985C123.896 126.753 124.832 126.866 125.632 127.303C126.431 127.739 127.033 128.464 127.315 129.331C128.327 132.731 127.387 141.205 122.116 140.151Z" fill="#010101"/>
<path d="M155.363 280.478C154.847 270.98 153.141 261.111 149.452 255.778C143.385 247.293 138.59 241.185 125.351 236.41C120.122 245.257 107.182 248.492 102.48 248.492C93.6539 248.492 82.5439 241.888 79.6088 236.41C66.3699 241.185 61.5642 247.293 55.5079 255.778C51.8184 261.111 50.1131 270.98 49.5964 280.478C49.2737 287.106 49.4846 293.748 50.2268 300.342C50.4128 301.737 60.3963 300.724 72.0127 300.735C79.2471 300.735 97.0748 300.838 103.379 300.735L112.918 300.786C118.416 300.786 120.669 300.786 132.947 300.735C144.564 300.735 155.188 301.241 155.363 299.835C155.973 295.205 155.777 287.496 155.363 280.478Z" fill="#284A9A"/>
<path d="M80.7353 182.7C87.1863 185.77 94.2618 187.302 101.405 187.175C107.801 187.322 114.161 186.187 120.111 183.837C110.727 170.556 91.2149 173.357 80.7353 182.7Z" fill="#F2929B"/>
<path d="M134.466 172.107C102.067 177.088 68.3232 172.107 68.3232 172.107C68.3232 172.107 71.744 178.308 80.725 182.7C92.6618 174.773 108.629 174.256 120.132 183.837C130.88 179.403 134.466 172.107 134.466 172.107Z" fill="#C24949"/>
<path d="M23.4905 166.298C22.674 160.222 17.4859 152.625 12.2358 155.767C10.7579 156.656 10.5409 159.074 10.4582 160.583C10.1895 165.265 12.2978 171.218 17.2482 172.613C22.4777 174.081 24.1106 170.567 23.4905 166.298Z" fill="#F8BCAC"/>
<path d="M181.407 166.298C182.213 160.222 187.412 152.625 192.662 155.767C194.14 156.656 194.347 159.074 194.44 160.583C194.698 165.265 192.6 171.218 187.639 172.613C182.41 174.081 180.829 170.567 181.407 166.298Z" fill="#F8BCAC"/>
<path d="M135.138 54.8988C137.019 70.2461 115.109 82.0589 105.715 90.9159C108.815 82.648 111.978 74.9692 114.479 66.7116C104.454 82.648 85.1483 87.309 65.1193 92.6211C72.6328 85.8208 75.3095 74.6178 79.9706 65.9365C74.4724 75.0105 66.6179 82.865 58.9804 90.1511C51.5807 97.2202 43.4781 100.073 35.0139 105.054C35.1172 100.92 35.665 96.6104 34.4454 92.6521C34.7141 98.326 33.5463 103.948 32.2234 109.436C30.4562 116.856 28.3685 124.876 27.4487 132.307C26.4876 140.058 26.0019 147.479 23.6042 155.044C16.3697 139.955 8.10184 123.698 6.82032 106.635C6.6653 104.486 5.48712 89.0659 7.53343 88.3012C5.29076 89.1796 3.68886 91.2569 2.36599 93.2929C2.46934 88.3528 2.1903 83.2991 4.78436 79.0204C3.22379 80.5293 1.40485 82.0279 0.123326 83.5161C-1.53025 66.5979 13.7757 46.2176 26.1775 36.017C35.5719 28.3382 52.4798 21.2588 65.0057 21.2588C53.7303 18.3031 41.8349 21.2588 30.5595 21.2588C54.9808 7.07939 104.454 -0.589082 128.255 19.4812C128.255 12.4019 127.005 5.90121 132.017 0C131.387 7.66848 134.518 15.3473 135.769 23.0261C138.28 14.7582 145.793 3.54486 154.557 1.76726C154.557 8.68129 149.39 13.3113 147.437 19.4812C145.132 26.7157 151.023 26.5813 156.552 28.3899C164.169 30.8806 171.248 33.8054 177.676 38.7248C185.169 44.4916 195.504 58.1233 196.114 67.9208C193.013 65.6885 189.799 62.7534 186.337 60.9551C192.176 63.9522 194.77 78.7621 195.514 84.4772C196.662 93.2929 197.499 101.923 196.186 110.738C194.902 119.776 192.65 128.65 189.469 137.206C187.743 141.753 186.368 148.574 181.201 150.424C180.643 150.62 172.178 111.658 171.899 108.744C171.507 104.661 167.848 87.8258 170.173 85.025C164.551 91.8047 165.926 99.4938 162.836 98.4603C153.296 95.1428 149.555 66.7219 147.096 59.0328C145.953 65.0876 145.118 71.1965 144.595 77.3359C143.553 76.3129 142.703 75.1125 142.083 73.791L135.138 54.8988Z" fill="#603017"/>
<path d="M120.659 301.086L83.5568 301.045L83.7945 235.366L120.7 234.798L120.659 301.086Z" fill="#EEF8FD"/>
<path d="M102.449 249.835C95.4911 249.952 88.5662 248.854 81.9859 246.59L82.8747 244.223C89.1706 246.383 95.7938 247.432 102.449 247.324C102.563 247.324 114.778 247.252 122.778 244.048L123.718 246.394C115.264 249.763 102.966 249.835 102.449 249.835Z" fill="#B4D9E4"/>
<path d="M92.2277 220.391C85.9648 220.071 80.1462 223.719 77.3248 225.073C75.8883 229.083 70.0904 245.743 69.6357 250.393C69.1499 257.287 77.5729 240.73 79.1851 237.041C81.2521 246.817 81.7585 257.287 83.6808 267.063C83.6808 243.738 83.8978 250.528 84.7659 239.159C85.4405 237.7 86.4093 236.396 87.6115 235.329C88.8137 234.262 90.2235 233.455 91.7523 232.958L92.2277 220.391Z" fill="#1D3D7A"/>
<path d="M112.773 220.371C119.026 220.05 125.454 223.719 128.276 225.073C129.712 229.083 135.51 245.743 135.965 250.393C136.451 257.287 128.668 240.73 127.067 237.041C125 246.818 122.602 257.08 120.68 266.857C120.68 243.531 120.897 250.145 120.039 238.756C119.391 237.357 118.449 236.114 117.277 235.112C116.106 234.109 114.732 233.371 113.249 232.948L112.773 220.371Z" fill="#1D3D7A"/>
</svg>
